<?xml version="1.0" encoding="UTF-8" standalone="no"?>
<svg
   width="740pt"
   height="260pt"
   viewBox="0 0 739.99998 259.99999"
   version="1.2"
   id="svg28"
   sodipodi:docname="GMT-International_Logo_Claim_4c_2025.svg"
   inkscape:version="1.3.2 (091e20e, 2023-11-25, custom)"
   xmlns:inkscape="http://www.inkscape.org/namespaces/inkscape"
   xmlns:sodipodi="http://sodipodi.sourceforge.net/DTD/sodipodi-0.dtd"
   xmlns="http://www.w3.org/2000/svg"
   xmlns:svg="http://www.w3.org/2000/svg">
  <sodipodi:namedview
     id="namedview30"
     pagecolor="#ffffff"
     bordercolor="#666666"
     borderopacity="1.0"
     inkscape:showpageshadow="2"
     inkscape:pageopacity="0.0"
     inkscape:pagecheckerboard="0"
     inkscape:deskcolor="#d1d1d1"
     inkscape:document-units="pt"
     showgrid="false"
     inkscape:zoom="1.0581"
     inkscape:cx="490.0293"
     inkscape:cy="236.74511"
     inkscape:window-width="1920"
     inkscape:window-height="1009"
     inkscape:window-x="-8"
     inkscape:window-y="-8"
     inkscape:window-maximized="1"
     inkscape:current-layer="svg28" />
  <defs
     id="defs11">
    <clipPath
       id="clip1">
      <path
         d="M 0,0 H 735.95703 V 258 H 0 Z m 0,0"
         id="path2" />
    </clipPath>
    <clipPath
       id="clip2">
      <path
         d="m 704,226 h 31.96094 v 33 H 704 Z m 0,0"
         id="path5" />
    </clipPath>
  </defs>
  <g
     id="g1"
     transform="translate(2.021485,0.976565)">
    <g
       clip-path="url(#clip1)"
       clip-rule="nonzero"
       id="g15">
      <path
         style="fill:#383335;fill-opacity:1;fill-rule:nonzero;stroke:none"
         d="M 735.95703,129.37109 V 13.078125 H 414.55469 l -33.0625,44.4375 -33.0625,-44.4375 H 236.24219 V 28.972656 C 209.4375,13.078125 189.26562,0.265625 133.38672,-0.00390625 39.503906,-0.0390625 0,67.367188 0,125.75391 c 0,66.36718 44.933594,132.625 133.38672,131.8125 H 348.42969 V 150.60156 l 33.0625,37.5586 33.0625,-37.5586 V 257.56641 H 526.76562 V 129.37109 h 43.28125 V 257.56641 H 683.05859 V 129.37109 Z M 236.24219,42.675781 v 77.882809 h -42.46094 l -0.004,0.004 c 0,-0.004 -0.004,-0.004 -0.008,-0.004 h -60.38281 v 34.15235 c -16.21484,-0.0742 -25.64063,-14.32422 -24.75391,-28.19922 0.38672,-12.15234 8.34375,-24.50391 24.75391,-24.64453 26.07422,-1.882815 46.8789,9.3789 60.38281,18.6914 h 0.0117 l 42.46094,-77.882809"
         id="path13" />
    </g>
    <path
       style="fill:#d11e26;fill-opacity:1;fill-rule:nonzero;stroke:none"
       d="M 233.80469,34.675781 C 233.61328,34.5625 230.56641,32.957031 230.37891,32.84375 205.36328,17.988281 185.79297,6.492188 133.18359,6.238281 h -0.0273 C 110.44531,6.230469 91.203125,10.300781 75.132812,17.167969 59.066406,24.035156 46.066406,33.746094 35.859375,45.148438 15.40625,67.996094 5.988281,97.875 5.988281,125.6875 c 0,31.77344 10.753907,63.14453 31.878907,86.41016 10.546874,11.62109 23.722656,21.26953 39.535156,27.97265 15.820312,6.70313 34.378906,11.32031 55.691406,11.125 H 342.44141 V 134.28125 l 39.05078,44.28516 39.05078,-44.28516 V 251.19531 H 520.375 V 123 h 55.65625 V 251.19531 H 676.66406 V 123 h 52.875 V 19.320312 H 417.55078 L 381.49219,67.824219 345.4375,19.320312 242.23047,19.339844 V 126.58594 l -102.85938,-0.0469 v 34.44141 l -6.21484,-0.0312 c -4.96094,-0.0195 -9.50781,-1.13672 -13.51562,-3.125 -3.9961,-1.97656 -7.35938,-4.78906 -10.03125,-8.10156 -5.26563,-6.54688 -7.8711,-15.11719 -7.46094,-23.58203 0.35547,-7.35547 2.89844,-14.88282 8.07031,-20.67969 2.62109,-2.9375 5.87891,-5.38672 9.76563,-7.101565 3.88671,-1.714844 8.28906,-2.65625 13.14843,-2.699219 l 0.29688,-0.0039 c 24.32031,-0.222656 41.11718,6.875004 58.01562,16.742194 l 42.35938,-77.722663"
       id="path17" />
    <g
       clip-path="url(#clip2)"
       clip-rule="nonzero"
       id="g21">
      <path
         style="fill:#383335;fill-opacity:1;fill-rule:nonzero;stroke:none"
         d="m 719.79687,235.42578 c 3.06641,0 4.47657,0.87109 4.47657,3.03906 0,2.08594 -1.41016,2.82032 -4.39063,2.82032 h -2.76953 v -5.85938 z m 0.59766,-2.17187 h -6.56641 v 17.71484 h 3.28516 v -7.55078 h 3.23828 l 3.53516,7.55078 h 3.66797 l -3.87891,-8.07422 c 2.51563,-0.51953 3.96484,-2.26172 3.96484,-4.77344 0,-3.21875 -2.38671,-4.86718 -7.24609,-4.86718 z m 12.91406,9.29296 c 0,3.60547 -1.36718,6.94532 -3.8789,9.42188 -2.64063,2.60547 -5.92188,3.99609 -9.54688,3.99609 -3.40625,0 -6.77734,-1.42968 -9.29297,-4.03906 -2.51562,-2.60547 -3.92187,-5.94922 -3.92187,-9.51172 0,-3.55859 1.45312,-7.02734 4.05078,-9.72656 2.42969,-2.51563 5.71094,-3.86328 9.29297,-3.86328 3.66406,0 6.94531,1.39453 9.5039,4.04297 2.46875,2.51953 3.79297,5.90234 3.79297,9.67968 z m -13.33984,-15.76171 c -4.13281,0 -7.84375,1.52343 -10.65625,4.42968 -2.98438,3.08203 -4.64453,7.07813 -4.64453,11.19922 0,4.125 1.57422,7.94922 4.47265,10.94531 2.94141,3.03907 6.73438,4.6875 10.82813,4.6875 4.00391,0 7.88672,-1.64843 10.91016,-4.64453 2.89843,-2.86718 4.47265,-6.68359 4.47265,-10.98828 0,-4.16797 -1.61719,-8.07031 -4.42969,-10.98047 -2.9414,-3.04297 -6.77734,-4.64843 -10.95312,-4.64843"
         id="path19" />
    </g>
  </g>
</svg>
