<svg version="1.1" id="Livello_1" xmlns="http://www.w3.org/2000/svg" xmlns:xlink="http://www.w3.org/1999/xlink" x="0px" y="0px"
	 viewBox="0 0 153.1 44.2" style="enable-background:new 0 0 153.1 44.2;" xml:space="preserve">
<style type="text/css">
	.st0{fill:#1d1d1b;}
	.st1{fill:#E42313;}
</style>
<path class="st0" d="M95.5,17.4v3.7H78.4v4.1h10.8v6.4H78.4v4.6h17v3.8c0,0,0,3-2.9,3H74.4c-2.9,0-2.9-2.9-2.9-2.9V17.3
	c0,0,0-2.9,2.9-2.9h18.2C92.6,14.4,95.5,14.4,95.5,17.4z M106.7,14.4h-7.4v25.8c0,2.9,2.9,2.9,2.9,2.9h16.6c2.9,0,2.9-2.9,2.9-2.9
	v-4l-14.9,0V14.4z M138.5,14.4h-18.2c-2.8,0-2.9,3-2.9,3h0l0,3.9h8.1v21.8h7.1V21.3h8.7v-3.9C141.4,14.4,138.5,14.4,138.5,14.4z
	 M145.6,14.4v28.7h7.4V14.4H145.6z"/>
<path class="st1" d="M23.1,19h17.6v24.1h-7.1l-0.8-4.5c-1.3,1.9-4.1,3.6-4.1,3.6c-4.5,2.3-7.8,1.9-7.8,1.9c-7.2,0-12.8-4.3-12.8-4.3
	C0.5,34.1,0.1,24,0.1,24c-0.5-4.6,1.2-9.7,1.2-9.7C6.3-0.8,20.9,0,20.9,0c17.9,0,19.2,14.4,19.2,14.4h-0.1H29
	c-0.1-0.4-0.4-1.2-0.4-1.2C28.1,12,26.6,11,26.6,11c-2.4-1.8-6-1.6-6-1.6c-4.5,0-7.1,3.7-7.1,3.7c-2.7,3.8-2.5,9.2-2.5,9.2
	c0.3,13.3,10.5,12.3,10.5,12.3c9.7-0.3,9.3-7.5,9.3-7.5h-7.7V19z M153.1,9.8V1.3H45.3v41.8H56V27.4h11V19H56V9.8H153.1z"/>
</svg>
